<svg version="1.1" id="Layer_1" xmlns="http://www.w3.org/2000/svg" xmlns:xlink="http://www.w3.org/1999/xlink" x="0px" y="0px"
	 width="100%" viewBox="0 0 1024 1024" enable-background="new 0 0 1024 1024" xml:space="preserve">
<path fill="#000000" opacity="1.000000" stroke="none" 
	d="
M665.453125,768.577393 
	C656.093750,769.491455 646.843628,768.071533 638.393372,771.930908 
	C630.623169,775.479675 622.398254,776.359863 614.099182,776.959290 
	C608.291687,777.378845 602.440308,777.747925 596.634399,777.509399 
	C586.308594,777.085083 577.338928,782.271484 567.537170,784.021179 
	C558.493164,785.635681 549.501831,787.218323 540.290588,787.057678 
	C519.976685,786.703552 499.623901,788.113342 479.352692,786.040344 
	C468.595276,784.940308 457.927460,782.795288 447.154999,782.048645 
	C429.698761,780.838989 412.126923,780.188843 395.335114,775.001038 
	C383.049530,771.205322 370.335144,769.491272 358.076630,765.895935 
	C351.693329,764.023743 346.313202,759.794739 341.130768,755.580566 
	C339.583984,754.322632 338.204010,752.802490 336.517456,751.783386 
	C328.553070,746.971008 320.463898,742.423767 313.481873,736.097229 
	C304.752014,728.186890 289.675964,729.395325 280.278290,737.168091 
	C271.091003,744.767029 258.165222,745.448120 247.760956,739.605469 
	C241.964005,736.350098 236.087387,733.151245 229.979858,730.554504 
	C221.093338,726.776306 214.199844,720.137756 206.243103,715.108887 
	C194.821060,707.889771 185.819717,697.608093 173.864365,691.134888 
	C162.174667,684.805542 156.176376,674.097473 154.230515,661.334045 
	C150.665131,637.947754 145.100937,614.901367 141.875320,591.505188 
	C139.601486,575.012390 135.568237,558.814453 134.193237,542.205017 
	C133.597412,535.007568 133.574310,527.956848 137.280914,521.297302 
	C139.823395,516.729248 140.584976,511.496429 140.863251,506.332031 
	C141.382675,496.692505 141.792130,487.038818 141.890640,477.387421 
	C141.974197,469.200745 142.079147,461.072632 144.427567,453.131958 
	C145.710449,448.794128 144.336670,444.495758 143.664642,440.268250 
	C142.780869,434.708679 143.435394,429.656677 145.082260,424.172455 
	C148.737564,411.999908 152.959305,400.136261 158.832932,388.871155 
	C165.292786,376.481720 173.081100,365.489410 187.769913,361.955231 
	C194.438370,360.350830 199.830978,356.171173 205.273941,352.509613 
	C213.680435,346.854431 223.167938,343.642517 232.136734,339.356506 
	C242.076981,334.606262 251.784286,329.290405 260.165283,322.528015 
	C267.070190,316.956635 273.666962,310.903107 280.619751,305.243805 
	C293.246307,294.966248 306.862122,292.123260 322.230896,296.356995 
	C332.089905,299.072937 342.120605,298.328918 352.039459,297.630615 
	C358.585052,297.169739 365.000092,296.873138 371.398804,298.238831 
	C375.312408,299.074127 379.233093,298.756409 382.701050,297.317200 
	C390.671295,294.009491 398.885040,291.335571 406.533997,287.146057 
	C422.034119,278.656281 437.803070,277.684387 453.530121,286.947571 
	C456.703339,288.816620 460.193390,289.615234 463.938354,290.060211 
	C489.181946,293.059540 514.020264,288.830902 538.998169,286.499268 
	C548.283447,285.632446 556.930237,283.189728 565.532959,280.024658 
	C569.797607,278.455658 574.221619,277.750824 578.784302,278.001801 
	C587.765564,278.495911 596.335571,276.652069 604.558716,273.182434 
	C612.862488,269.678741 621.382324,271.213867 629.712769,272.358032 
	C650.063660,275.153168 668.661804,283.391571 687.032471,292.071136 
	C691.933533,294.386688 696.759583,296.333191 702.290894,296.108978 
	C705.950989,295.960602 709.623047,296.008698 713.287292,296.086121 
	C720.659485,296.241882 727.779663,297.076996 734.359375,301.091797 
	C743.283752,306.537262 753.228577,309.430573 763.492004,311.131897 
	C778.763550,313.663361 793.251831,318.699127 806.732788,326.075989 
	C816.024963,331.160736 823.934937,338.989258 833.491211,343.323914 
	C848.930603,350.327118 860.737549,361.650787 872.787598,372.747528 
	C880.206848,379.579803 886.786377,387.354309 891.015320,396.835938 
	C896.516235,409.169678 903.364136,420.785522 910.370117,432.325226 
	C914.243652,438.705322 917.505371,445.469147 920.827087,452.167084 
	C922.717712,455.979218 922.494751,460.016785 922.192139,464.311432 
	C921.030090,480.802826 918.913452,497.469177 927.164185,513.089539 
	C930.111572,518.669556 929.911377,525.064087 930.585571,531.150879 
	C931.154846,536.289307 931.768188,541.386780 932.905945,546.433472 
	C935.624390,558.491394 933.602966,570.495667 930.763611,582.045105 
	C927.638977,594.755249 923.342346,607.274231 915.660461,618.294373 
	C912.961365,622.166321 912.356873,627.032288 912.133423,631.689941 
	C911.831299,637.985962 910.605469,644.039795 907.256165,649.325745 
	C900.375061,660.186035 897.123291,672.880493 889.684326,683.434875 
	C885.998230,688.664795 881.478333,692.861938 875.892822,696.073242 
	C869.577148,699.704285 864.113037,704.675171 857.615845,708.063538 
	C856.441345,708.676025 855.410156,709.637329 854.182922,710.063904 
	C831.180298,718.059387 809.904419,729.849365 787.935852,740.115906 
	C785.834473,741.098022 783.657593,742.036438 781.415222,742.581299 
	C753.114624,749.456543 724.741455,755.987244 695.836548,759.877136 
	C690.504578,760.594666 685.421631,761.927368 680.833618,764.960205 
	C676.337891,767.931946 671.000916,767.808411 665.453125,768.577393 
M695.500000,447.036865 
	C678.668701,447.033875 661.837341,447.002136 645.006287,447.057709 
	C642.356750,447.066437 639.651306,447.196106 637.068787,447.735077 
	C614.159363,452.516388 600.985352,478.845520 608.218750,504.113586 
	C612.518860,519.135071 626.416992,533.598206 648.353821,533.046875 
	C676.498962,532.339539 704.675354,532.855042 732.838257,532.882019 
	C738.731079,532.887695 741.368469,535.016418 742.687134,540.683350 
	C743.337585,543.478760 743.297852,546.344116 742.647522,549.115234 
	C741.579224,553.667603 738.995117,556.488464 733.883606,556.229858 
	C731.224121,556.095276 728.552246,556.208984 725.885925,556.208496 
	C690.390625,556.201843 654.895020,556.265625 619.400391,556.104370 
	C614.603760,556.082581 612.870544,557.656128 613.096008,562.436462 
	C613.401794,568.921204 613.390869,575.440674 613.102966,581.927002 
	C612.896057,586.588440 614.807800,587.978149 619.255066,587.963562 
	C658.082886,587.836182 696.911255,587.898010 735.739136,587.798096 
	C740.902222,587.784851 745.991455,586.934998 750.793213,584.742249 
	C774.731445,573.810791 780.692261,542.607422 768.684509,521.132141 
	C761.136658,507.633301 749.050903,501.259247 733.563232,501.272125 
	C705.233704,501.295685 676.904114,501.253479 648.574585,501.250916 
	C645.704834,501.250671 642.629700,501.397858 640.754272,498.863007 
	C637.162292,494.008179 637.279846,488.673065 639.371216,483.191376 
	C641.187561,478.430481 645.353394,477.948944 649.308533,478.272583 
	C659.655945,479.119293 669.956238,478.008881 680.278687,478.079041 
	C707.587280,478.264679 734.897095,478.269745 762.206116,478.412079 
	C766.098816,478.432373 768.028320,477.113037 767.852905,472.864685 
	C767.605652,466.875977 767.815063,460.868927 767.805054,454.869781 
	C767.792419,447.263306 767.562378,447.018250 759.991394,447.016418 
	C738.827576,447.011261 717.663818,447.028168 695.500000,447.036865 
M383.526855,422.133667 
	C359.875549,423.442566 336.224213,424.751465 312.572906,426.060364 
	C346.434753,426.762085 380.255951,426.888336 414.074280,426.634186 
	C419.527374,426.593201 421.978455,428.389587 423.771271,433.467499 
	C439.009216,476.626678 454.519257,519.689758 469.931519,562.787476 
	C477.887360,585.034546 485.884216,607.267639 493.678802,629.571228 
	C495.055603,633.510742 497.117859,635.143250 501.327850,634.877930 
	C506.472534,634.553772 511.670380,634.539062 516.812866,634.879333 
	C521.189880,635.168945 523.300232,633.537476 524.791992,629.380127 
	C548.460693,563.420166 572.322571,497.529541 595.979004,431.565216 
	C597.610840,427.014893 599.974976,425.494232 604.725342,425.533508 
	C633.547852,425.771881 662.372681,425.734100 691.196777,425.774536 
	C703.982605,425.792480 716.768433,425.777557 729.554260,425.777557 
	C712.144775,423.799072 694.719360,422.734100 677.276794,421.768311 
	C643.374939,419.891266 609.498108,417.523651 575.632690,415.060822 
	C569.837219,414.639374 567.443787,416.748688 565.684937,422.024139 
	C547.997009,475.076080 530.092834,528.055969 512.192749,581.036987 
	C511.652069,582.637390 511.793610,584.788696 509.550812,585.609436 
	C507.638947,584.726318 507.374542,582.827759 506.811798,581.125977 
	C505.193146,576.230896 503.595825,571.328796 501.965271,566.437744 
	C491.544556,535.179443 481.133606,503.917786 470.685120,472.668732 
	C465.302765,456.571289 459.852264,440.496582 454.426758,424.413605 
	C453.196625,420.767029 451.785400,418.029846 446.801056,418.384308 
	C426.053802,419.859619 405.276733,420.915466 383.526855,422.133667 
M341.016510,552.483582 
	C351.749084,563.185852 362.482788,573.887024 373.213104,584.591492 
	C374.869568,586.243958 376.449463,587.886108 379.111755,587.870544 
	C390.770386,587.802307 402.429565,587.827271 414.088409,587.789856 
	C415.063293,587.786743 416.124695,587.793884 416.809235,586.666809 
	C416.950867,584.353638 414.919922,583.371277 413.584717,582.044556 
	C393.500122,562.086548 373.373077,542.171204 353.252502,522.249390 
	C348.345093,517.390503 348.381042,517.436279 353.189331,512.391113 
	C372.146271,492.500427 391.084503,472.592010 409.989594,452.652130 
	C411.155334,451.422607 413.027161,450.361450 412.131897,447.805298 
	C411.488312,447.612671 410.727936,447.189850 409.965485,447.186157 
	C398.307281,447.129669 386.648743,447.147186 374.990479,447.097900 
	C372.494507,447.087372 371.064575,448.692108 369.643799,450.328766 
	C350.759705,472.082184 331.940094,493.891937 312.962219,515.563171 
	C309.901764,519.057983 309.900238,521.583252 313.255615,524.834473 
	C322.464905,533.757874 331.446655,542.916260 341.016510,552.483582 
M298.857239,462.508911 
	C298.852783,459.509918 298.643799,456.493988 298.890900,453.515869 
	C299.280182,448.823761 297.492859,446.813141 292.647827,447.024933 
	C286.661713,447.286652 280.654907,447.056702 274.657227,447.078430 
	C268.238464,447.101685 268.022095,447.296753 268.015961,453.929504 
	C267.992767,478.920349 268.007721,503.911194 267.998352,528.902039 
	C267.991730,546.562195 268.080017,564.223694 267.876770,581.881714 
	C267.824493,586.423645 269.328400,588.157471 273.921204,587.931396 
	C279.904510,587.636902 285.913391,587.884216 291.911102,587.856873 
	C298.875366,587.825073 298.880432,587.805664 298.879333,580.963745 
	C298.873108,541.811218 298.864258,502.658691 298.857239,462.508911 
M588.501709,613.081665 
	C574.859131,612.723572 561.216797,612.357117 547.573975,612.010681 
	C540.124512,611.821533 538.418762,613.566040 538.419373,622.347961 
	C601.857117,620.459778 665.266846,618.572449 728.676575,616.685120 
	C728.678711,616.388550 728.680908,616.091919 728.683044,615.795288 
	C682.289001,614.891907 635.895020,613.988464 588.501709,613.081665 
M412.483337,620.017395 
	C434.208466,620.179260 455.902344,622.345459 477.586090,621.702393 
	C478.364899,613.610779 477.087830,612.057861 469.801727,612.214294 
	C441.519165,612.821167 413.239441,613.561707 384.956543,614.151062 
	C361.329529,614.643372 337.699982,615.020935 314.070618,615.390686 
	C307.143372,615.499146 300.212982,615.407471 293.284027,615.407471 
	C293.287903,615.781982 293.291779,616.156433 293.295654,616.530945 
	C332.693420,617.690186 372.091156,618.849487 412.483337,620.017395 
z"/>
</svg>